<mxfile host="app.diagrams.net" modified="2023-12-06T18:28:53.722Z" agent="Mozilla/5.0 (Macintosh; Intel Mac OS X 10_15_7) AppleWebKit/537.36 (KHTML, like Gecko) Chrome/119.0.0.0 Safari/537.36" etag="2XaUvxDdgXbHCPuxSBNT" version="22.1.7" type="google">
  <diagram name="Page-1" id="HMSZJAy41G0naUgyjOcL">
    <mxGraphModel grid="1" page="1" gridSize="10" guides="1" tooltips="1" connect="1" arrows="1" fold="1" pageScale="1" pageWidth="850" pageHeight="1100" math="0" shadow="0">
      <root>
        <mxCell id="0" />
        <mxCell id="1" parent="0" />
        <mxCell id="hLr_6GewXtSCxbk2koOT-77" value="" style="rounded=0;whiteSpace=wrap;html=1;strokeWidth=3;fontSize=12;fillColor=default;arcSize=2;" vertex="1" parent="1">
          <mxGeometry x="-30" y="-20" width="1490" height="1110" as="geometry" />
        </mxCell>
        <mxCell id="hLr_6GewXtSCxbk2koOT-1" value="" style="rounded=0;whiteSpace=wrap;html=1;fillColor=#e1d5e7;strokeColor=#9673a6;" vertex="1" parent="1">
          <mxGeometry x="-30" y="-20" width="360" height="1110" as="geometry" />
        </mxCell>
        <mxCell id="hLr_6GewXtSCxbk2koOT-2" value="Namespace &quot;Corp&quot;" style="text;html=1;strokeColor=none;fillColor=none;align=center;verticalAlign=middle;whiteSpace=wrap;rounded=0;fontSize=32;" vertex="1" parent="1">
          <mxGeometry x="-30" y="70" width="360" height="60" as="geometry" />
        </mxCell>
        <mxCell id="hLr_6GewXtSCxbk2koOT-3" value="Datacenters&lt;br style=&quot;font-size: 16px;&quot;&gt;10.128.0.0/9" style="sketch=0;outlineConnect=0;fontColor=#232F3E;gradientColor=none;fillColor=#232F3D;strokeColor=none;dashed=0;verticalLabelPosition=bottom;verticalAlign=top;align=center;html=1;fontSize=16;fontStyle=1;aspect=fixed;pointerEvents=1;shape=stencil(zVzhbuMoEH6a/EUwYDA/T72794jS9BpdN6nS7G337W+c1BgGmjqDiVqtFO04HuYbhvnM59gr/fD2vH7drkCu3163m9NK/7kCeNq9bx/xE83PF4vrhbT9xbRf/9herJvD8fVwXJ+G8x/XpzV+bLb70/Z4+eLb6Xj4d/tr93j68LLbP2+Pu9Pl6K+LrdNCdXow6b9W8g88MPzTD5vDfo8B7Q77t7Ptb3L86XDc/nM8/Nw/JgfC4d3Ly+bwcjgOMZ0/z6OtQD+d/y4xULfj2cchFSDfLyfB5cu/k/+N4cs0T911x0NYXxwuRy3Pf9edv66HRGcHxsM/Dv9tJ1DaCd0lwIwW1lyNf/T0sttHnowU1kMrV51CV+p2Vzm++Z42L4e37ZffSvMJRvRumYRCL0C5Vq64CS0AbJtRBcJIvUgaVCecWWZyCq64GS0AbJtRbYVUNk2DnJuGzc/jxZf6cNYJpf3lzHf4sBnh5AdNvOtg68xYgiof9ffHuUYJ6Mbv6WDrPCs4I3Rvs+DGjhDFFpqECkN60CQ0EMp7EhpOXj8rNtKXTNaXQDjvuCi7HGQAfmUGkHZl36cw0aatTmGizXrLDG6qBZhqxpDg4pocgzNCgifBmWllhOAMb+Hh3Ekw6STMdkVxojMvVYoTm4vWkAJFm/E6AzqBggL46lkY2lxnsugCy0bRTcyrCvUAhbrRtxYwmQadXzjMXlUloAEUFMBfmYZkfU/taOoDte0oqQco1I0uFObUkKa+OJ4b90+d2xpc3mjsIYSM2dQBIKwl3Rlt2AvSdKBNOtqfW1MH4MQrTYJTeO1Dg4ts9yKPZMxa9khAQQH8lVloTx9JPUChbnShMO/EH+BF16l0Gtj8oaUwQHlSin4s6ECUComyz4A25g8cVTl6laemTUUU3bTRuBN/JGPW8kcCCgrgr0xDc/5I6gEKdaMLhfmt+ENh2qxP54rNH0pivgmdeuEsaVxeWEkuaZqzhxfGKBpZ2OVNkU0bvztRh8/3mmzmiBFBjvvz9LenjbgMoFAtulCOd2IN5ZBHCXmzWQOd+Y4C7XHvRy530daZfHvVmDVwVCddFl0QTqLoJjHlTqyRjFnLGgkoKIC/Mg3NWSOpB4jqhtZIXJgxa5CVen/WyEVcsMKM8Vcqywu60gZdwe2ucnzzPS0kUnOzUFCWF3TFTWgBYNuMFjRcbhoKyvKCrrgZLQBsm9GCSI17PDOS3f1E6njUsQVifYX7oGMLRJuRvK0fW6XGMZ02JLZOSEkoHG3gF1GpMZN2zNrdVGoctPeEhbA+lCOXZGjr5Kx1sqBKjbZek40VNnTT0eAiW6VKPd/Vkip1AgoK4KtnoUalPtcDkOjiutG3FvCXKvX8VbWkSp2s76kfTX2guh/VyNRJZxyjizuozm13kan55FEjU7cnjxqdujV9FHRqPn/U6NTtCaRGp27NIAWdms8gNTp1ewap0albM0hBp+YzSI1O3Z5BaoTq78EgBaGazyB8obo9f7CV6tbkkSvVfO5gK9XtiaNCqW7NGwWlms8bNUp1e96oUapb80ZBqebzRo1S3Z43aqTq78EbuZTrBdhl5OXlPGH+wMLtrnJ08z0tJFQzk1AQl5fzxE1nAV7bfBZUXGYWCtLycp64+SzAa5vPgkht52ZhSY06GnRsfUiPjlyJYSrUnQVqh7GSwJzoFWHGXijWhipTp5E/jGL/UpypTp/pk9Ai2nwPKUrlhVa839jz1Wkc1BrKinJaE4EVJW/JFdTp+a6WVKcTUFAAXz0LNep0Ug9QqBt9awF/qU7PXlRLitPx4g7rfWoBtY2oRpmOG2LokVPb1Le272VkaTZd1KjSjemiRpJuShgFPZrPGDV6dHvKqNGjW3NGQY/mc0aNHt2eM2r06NacUdCj2ZxRI0c35owaLfobcEZBiGZzBl+HbswYbBG6KV3kCjSfLdgKdHuqqFCgWzNFQYHmM0WNAt2eKWoU6NZMUVCg2UxRI0A3Zooa9fkbMEWH/YTcrQkSwU17SSesMyxH2X7NCwCy5DqJlwCks8e2cFsljBl+eI6kneZzuMsy68mEFOEwHBEtnMF5ZrwHQgvpfeYJOI+xCUUfRhfG8cSsyVW44hHe0aRH9TLOlwBJHouKpkHfWAyMGi7UnmTMr+h8uhJwwjXvx19YYSSV6Iv05MkyJjIaL/Ai1hx9vklYNSuqFJ5M660TXrNasaS4HNDdYb4s3XALyKbQhtdC0ZvOse3GtekNWZvRW6duQ9jhLpjsvs7PEBGYsS3g7PPbiYjdBJVtxGmF5LxAZnrhVbTee1aNxq6iLptdOiSLK9S39eQnBDIFOGv9XV/r+gHtn7yW6tOXYZ1Pyl7vdbZeXlZ2NvwP);" vertex="1" parent="1">
          <mxGeometry x="160" y="800" width="53" height="78" as="geometry" />
        </mxCell>
        <mxCell id="hLr_6GewXtSCxbk2koOT-4" value="Offices&lt;br style=&quot;font-size: 16px;&quot;&gt;10.0.0.0/9" style="sketch=0;outlineConnect=0;fontColor=#232F3E;gradientColor=none;fillColor=#232F3D;strokeColor=none;dashed=0;verticalLabelPosition=bottom;verticalAlign=top;align=center;html=1;fontSize=16;fontStyle=1;aspect=fixed;pointerEvents=1;shape=stencil(tZrdcpswEIWfxrca/QHispM27+HaOGHqQAY7jfP2lcHCoN14YLvKZCbjJRx0Pkl7aKqNeTq9bt+rjZbb03u1O2/Mz43Wh/pS7f1PX34dKtaKTJuh1GzfqqHaHg717nrz74/6uK+bl+EXTueu/VN91vvz7e66ea26+jxc/Rxq2gmT9Yrm10b+8Beu3+Zp1zaNH0jdNqe+9hxdP7Rd9dK1H81+dmG8XB+Pu/bYdv7j8LN/2kab5/5rGEMsG+7udbsrh3GcSs9AKDt8vAwf3fDp63bxsfp1bAObdUPQ+WwIxsyGoOZD4BjD9xBl//X4Ee/b67yDC+HyW/u3uo9ea+H0zIGVvvLQRVA61s1UyaZTMpnIwsyvUgLulivtju3p+0nCaapSaFdACJowdJVSqseQrZdCDC6XIhH1a8GxUFB5OiUyTuAuMU0lDBcEk1KKDBQaTEs0F6VVLBRcQiUqTuguLU2/EPKchUGWUIlKE7pLSxNJP1+xPInMpuSXqy1yjmxfrsSU7WQISCDzSVGBIgYTE4XpR6SAJDKbEhkncJeYJhJ9VAhIIPNJkYFCg2mJIulHpIAkMpsSFSd0l5Ymkn5EBkgisylRaUJ3aWki6ZcJR3krQRKZT0kJm1FSDbpbrMSU7WQISCAzShGBYgbTEoXpR6SAJDKfEhUndJeWJhJ9VAhIIDNKUYEiBpMSRdKPSAFJZD4lIk7EXVKaSPoRGSCJzKdEpIm4S0oTpp9ywhnC3y5gIjMqWWFzx5Hty5WYsp0MAQYypxQRKGYwLVGQflQKMJEZlag4obu0NGH0kSHAQOaUogJFDCYlCtOPSgEmMqMSESfiLilNmH5UBjCRGZWINBF3qXtnKaPNoERhC1LLSyhlRBkOnKzsnmQlavcsMh4IJqUUlSf0l5Snby+3Y0H3/zjT97NHq15xEqio6x/6yvUqhXBlSVTafXQDIRVauc1uo7roUBrlLwaUvhR85Jcea1aGdm7GOSeZdMAkJfhLYS2/yHJPMe6JVsDtSy688QbeWt4fqRC2GpkD83+LCtkrK1YVbXNmecRVEseuwAzxKYnCkaZ6IhWm2k9rbqKp9tOfh399h7n2g5dmPtVyPsuSsqHy6MV1kUhsqxCFjBpGDhtGDhuGjAxNPJqVqON3SNAOibM/GcBqpZjT1V/ESc4ZyTmf6aPGDa4mi+O+wXNDeDmUM2M+wQqz7OhgbCwyNfEJ5zGYs0YUOupe02PAwdy0trJ7xc1kuRTYuYXIsmjnunt3HJv0pDb6nHrSiHezFn/k02FdeuF6AD6npjT0bhC2ClmYGlnAZvX+eRgh5snXvzkLPBwxRm7tbwJHvPvqcFC9L/wD);" vertex="1" parent="1">
          <mxGeometry x="30" y="800" width="50" height="78" as="geometry" />
        </mxCell>
        <mxCell id="hLr_6GewXtSCxbk2koOT-5" value="" style="rounded=0;whiteSpace=wrap;html=1;fontSize=16;fillColor=#f2f2f2;glass=0;strokeColor=default;perimeterSpacing=0;" vertex="1" parent="1">
          <mxGeometry x="330" y="-20" width="470" height="1110" as="geometry" />
        </mxCell>
        <mxCell id="hLr_6GewXtSCxbk2koOT-6" value="Namespace&lt;br&gt;&quot;MPLS Backbone&quot;" style="text;html=1;strokeColor=none;fillColor=none;align=center;verticalAlign=middle;whiteSpace=wrap;rounded=0;fontSize=32;" vertex="1" parent="1">
          <mxGeometry x="330" width="470" height="90" as="geometry" />
        </mxCell>
        <mxCell id="hLr_6GewXtSCxbk2koOT-7" value="" style="sketch=0;outlineConnect=0;fontColor=#232F3E;gradientColor=none;fillColor=#4D27AA;strokeColor=none;dashed=0;verticalLabelPosition=bottom;verticalAlign=top;align=center;html=1;fontSize=12;fontStyle=0;aspect=fixed;pointerEvents=1;shape=stencil(rVjtsqIwDH0a/3bapkD5uXP37nuwiFfmKjh+rPD2C1SwCeCVqOOM0xROT5KTtHYFH6dtcshWWianQ5aeV/B7pfUmr7J189uYt85ijBsWyT5zlvRyOpf77NgYv5Jzdk1q98TpfCy/s2u+Pt9ezYttdszPbvbqw8HnSv5qjO0XPtKyKBoGeVmcOtsfMv83Sb+/juWlWKOJfnqT73ZpuStbQu63W2mlYdN93PoUtn872+3ywykbO3zFw8oNpRvVaDSm3FhmWDd8y2P2gzsP+M57a9Y6SpLH3h6SNjmjiX56X/7L7r4aKbS0yGGtRSSjR2v0ULu88KAgEBYAQ0VCWs2AMsKoGEMFIgwtA6qlEGEoWA6j4d0QHbGQAeMFovbCxYiNn57aSyIjY75oak9aT+kovRydJtUAFqgbiUoPNh3cwlVBb7stqIYVjexterAFNwtQy0JWSkRDp9CDzVhLWCmhYxgxC0a87lxhacRw8FUoYmXfkkdlBQCRBFdd6j16xzCcymvDE7yMEovAki7A7ElWqJB0N26jFFFsmN2b6hsaQQKWt2+C8Yr3cgUVYnk3RRDa/rmJwngtXJ3gGYUyTmGnd/UWSTFQqLZfh2h5MUI8UfZtrBh8JnpRmz9GslAfvYvvqSqZ6N2DHL0dZZDtfUfxtjGvLvog67EJFlL7cQvmhmt8LmCmkBxUmJKiJyYGkamzGwdmfJrklv3EGZfbi6ZO3k83SKrv9nwRx1jfyAYTi07URj1RG/VEbTxmh/9iaCxvwypgJUUc0SMhqV3sVr/OULMgpLbUJVYzwTQQtZmTqf9MjenXmP7CPdtzasg74WIIF0IDUXspLoYEBpGbCQzKCnGghiWKeSg6yfEnFjYkNSWxNxI7I7Ef3vuvBVZiEj6vubAaoYBsWoYcx/rxQsV5yBVBrgjyUIqkuyB2r0mO7OmI3Uxs/LTgtNbwhFq6i5+ZOxZ3deMuySYAuldHV0Od1V3UdYb/);points=[[0.15,0.82,0,0,0],[0.85,0.82,0,0,0]];" vertex="1" parent="1">
          <mxGeometry x="290" y="281.5" width="78" height="78" as="geometry" />
        </mxCell>
        <mxCell id="hLr_6GewXtSCxbk2koOT-8" value="" style="rounded=1;whiteSpace=wrap;html=1;fontSize=16;fillColor=#dae8fc;strokeColor=#6c8ebf;arcSize=8;" vertex="1" parent="1">
          <mxGeometry x="800" y="200" width="640" height="241" as="geometry" />
        </mxCell>
        <mxCell id="hLr_6GewXtSCxbk2koOT-9" value="Namespace &quot;Customer A&quot;" style="text;html=1;strokeColor=none;fillColor=none;align=center;verticalAlign=middle;whiteSpace=wrap;rounded=0;fontSize=32;" vertex="1" parent="1">
          <mxGeometry x="1080" y="212" width="280" height="60" as="geometry" />
        </mxCell>
        <mxCell id="hLr_6GewXtSCxbk2koOT-10" value="" style="sketch=0;outlineConnect=0;fontColor=#232F3E;gradientColor=none;fillColor=#4D27AA;strokeColor=none;dashed=0;verticalLabelPosition=bottom;verticalAlign=top;align=center;html=1;fontSize=12;fontStyle=0;aspect=fixed;pointerEvents=1;shape=stencil(rVjtsqIwDH0a/3bapkD5uXP37nuwiFfmKjh+rPD2C1SwCeCVqOOM0xROT5KTtHYFH6dtcshWWianQ5aeV/B7pfUmr7J189uYt85ijBsWyT5zlvRyOpf77NgYv5Jzdk1q98TpfCy/s2u+Pt9ezYttdszPbvbqw8HnSv5qjO0XPtKyKBoGeVmcOtsfMv83Sb+/juWlWKOJfnqT73ZpuStbQu63W2mlYdN93PoUtn872+3ywykbO3zFw8oNpRvVaDSm3FhmWDd8y2P2gzsP+M57a9Y6SpLH3h6SNjmjiX56X/7L7r4aKbS0yGGtRSSjR2v0ULu88KAgEBYAQ0VCWs2AMsKoGEMFIgwtA6qlEGEoWA6j4d0QHbGQAeMFovbCxYiNn57aSyIjY75oak9aT+kovRydJtUAFqgbiUoPNh3cwlVBb7stqIYVjexterAFNwtQy0JWSkRDp9CDzVhLWCmhYxgxC0a87lxhacRw8FUoYmXfkkdlBQCRBFdd6j16xzCcymvDE7yMEovAki7A7ElWqJB0N26jFFFsmN2b6hsaQQKWt2+C8Yr3cgUVYnk3RRDa/rmJwngtXJ3gGYUyTmGnd/UWSTFQqLZfh2h5MUI8UfZtrBh8JnpRmz9GslAfvYvvqSqZ6N2DHL0dZZDtfUfxtjGvLvog67EJFlL7cQvmhmt8LmCmkBxUmJKiJyYGkamzGwdmfJrklv3EGZfbi6ZO3k83SKrv9nwRx1jfyAYTi07URj1RG/VEbTxmh/9iaCxvwypgJUUc0SMhqV3sVr/OULMgpLbUJVYzwTQQtZmTqf9MjenXmP7CPdtzasg74WIIF0IDUXspLoYEBpGbCQzKCnGghiWKeSg6yfEnFjYkNSWxNxI7I7Ef3vuvBVZiEj6vubAaoYBsWoYcx/rxQsV5yBVBrgjyUIqkuyB2r0mO7OmI3Uxs/LTgtNbwhFq6i5+ZOxZ3deMuySYAuldHV0Od1V3UdYb/);" vertex="1" parent="1">
          <mxGeometry x="760" y="337" width="78" height="78" as="geometry" />
        </mxCell>
        <mxCell id="hLr_6GewXtSCxbk2koOT-14" value="&lt;pre&gt;100.64.0.2/31&lt;/pre&gt;" style="endArrow=classic;startArrow=classic;html=1;rounded=0;fontSize=16;labelBackgroundColor=none;labelBorderColor=none;fontStyle=1;edgeStyle=orthogonalEdgeStyle;" edge="1" parent="1" source="hLr_6GewXtSCxbk2koOT-7" target="hLr_6GewXtSCxbk2koOT-10">
          <mxGeometry x="-0.4429" y="-10" width="50" height="50" relative="1" as="geometry">
            <mxPoint x="720" y="601" as="sourcePoint" />
            <mxPoint x="770" y="551" as="targetPoint" />
            <Array as="points">
              <mxPoint x="559" y="330" />
              <mxPoint x="559" y="376" />
            </Array>
            <mxPoint as="offset" />
          </mxGeometry>
        </mxCell>
        <mxCell id="hLr_6GewXtSCxbk2koOT-15" value="" style="endArrow=classic;startArrow=classic;html=1;rounded=0;fontSize=16;edgeStyle=orthogonalEdgeStyle;" edge="1" parent="1" source="hLr_6GewXtSCxbk2koOT-10" target="hLr_6GewXtSCxbk2koOT-13">
          <mxGeometry width="50" height="50" relative="1" as="geometry">
            <mxPoint x="1020" y="381" as="sourcePoint" />
            <mxPoint x="1070" y="331" as="targetPoint" />
          </mxGeometry>
        </mxCell>
        <mxCell id="hLr_6GewXtSCxbk2koOT-17" value="&lt;h2 style=&quot;line-height: 80%;&quot;&gt;Prefixes&lt;/h2&gt;&lt;pre style=&quot;line-height: 80%; font-size: 18px;&quot;&gt;&lt;b style=&quot;&quot;&gt;&lt;font style=&quot;font-size: 18px;&quot;&gt;10.0.0.0/8&lt;/font&gt;&lt;/b&gt;&lt;/pre&gt;&lt;pre style=&quot;line-height: 80%; font-size: 18px;&quot;&gt;&lt;b style=&quot;&quot;&gt;&lt;font style=&quot;font-size: 18px;&quot;&gt;192.168.0.0/16&lt;/font&gt;&lt;/b&gt;&lt;/pre&gt;" style="text;html=1;strokeColor=none;fillColor=none;spacing=5;spacingTop=-20;whiteSpace=wrap;overflow=hidden;rounded=0;fontSize=16;strokeWidth=1;" vertex="1" parent="1">
          <mxGeometry x="1145" y="302" width="235" height="98" as="geometry" />
        </mxCell>
        <mxCell id="hLr_6GewXtSCxbk2koOT-26" value="" style="sketch=0;outlineConnect=0;fontColor=#232F3E;gradientColor=none;fillColor=#4D27AA;strokeColor=none;dashed=0;verticalLabelPosition=bottom;verticalAlign=top;align=center;html=1;fontSize=12;fontStyle=0;aspect=fixed;pointerEvents=1;shape=stencil(rVjtsqIwDH0a/3bapkD5uXP37nuwiFfmKjh+rPD2C1SwCeCVqOOM0xROT5KTtHYFH6dtcshWWianQ5aeV/B7pfUmr7J189uYt85ijBsWyT5zlvRyOpf77NgYv5Jzdk1q98TpfCy/s2u+Pt9ezYttdszPbvbqw8HnSv5qjO0XPtKyKBoGeVmcOtsfMv83Sb+/juWlWKOJfnqT73ZpuStbQu63W2mlYdN93PoUtn872+3ywykbO3zFw8oNpRvVaDSm3FhmWDd8y2P2gzsP+M57a9Y6SpLH3h6SNjmjiX56X/7L7r4aKbS0yGGtRSSjR2v0ULu88KAgEBYAQ0VCWs2AMsKoGEMFIgwtA6qlEGEoWA6j4d0QHbGQAeMFovbCxYiNn57aSyIjY75oak9aT+kovRydJtUAFqgbiUoPNh3cwlVBb7stqIYVjexterAFNwtQy0JWSkRDp9CDzVhLWCmhYxgxC0a87lxhacRw8FUoYmXfkkdlBQCRBFdd6j16xzCcymvDE7yMEovAki7A7ElWqJB0N26jFFFsmN2b6hsaQQKWt2+C8Yr3cgUVYnk3RRDa/rmJwngtXJ3gGYUyTmGnd/UWSTFQqLZfh2h5MUI8UfZtrBh8JnpRmz9GslAfvYvvqSqZ6N2DHL0dZZDtfUfxtjGvLvog67EJFlL7cQvmhmt8LmCmkBxUmJKiJyYGkamzGwdmfJrklv3EGZfbi6ZO3k83SKrv9nwRx1jfyAYTi07URj1RG/VEbTxmh/9iaCxvwypgJUUc0SMhqV3sVr/OULMgpLbUJVYzwTQQtZmTqf9MjenXmP7CPdtzasg74WIIF0IDUXspLoYEBpGbCQzKCnGghiWKeSg6yfEnFjYkNSWxNxI7I7Ef3vuvBVZiEj6vubAaoYBsWoYcx/rxQsV5yBVBrgjyUIqkuyB2r0mO7OmI3Uxs/LTgtNbwhFq6i5+ZOxZ3deMuySYAuldHV0Od1V3UdYb/);points=[[0.85,0.85,0,0,0]];" vertex="1" parent="1">
          <mxGeometry x="290" y="560.5" width="78" height="78" as="geometry" />
        </mxCell>
        <mxCell id="hLr_6GewXtSCxbk2koOT-36" value="" style="sketch=0;outlineConnect=0;fontColor=#232F3E;gradientColor=none;fillColor=#4D27AA;strokeColor=none;dashed=0;verticalLabelPosition=bottom;verticalAlign=top;align=center;html=1;fontSize=12;fontStyle=0;aspect=fixed;pointerEvents=1;shape=stencil(rVjtsqIwDH0a/3bapkD5uXP37nuwiFfmKjh+rPD2C1SwCeCVqOOM0xROT5KTtHYFH6dtcshWWianQ5aeV/B7pfUmr7J189uYt85ijBsWyT5zlvRyOpf77NgYv5Jzdk1q98TpfCy/s2u+Pt9ezYttdszPbvbqw8HnSv5qjO0XPtKyKBoGeVmcOtsfMv83Sb+/juWlWKOJfnqT73ZpuStbQu63W2mlYdN93PoUtn872+3ywykbO3zFw8oNpRvVaDSm3FhmWDd8y2P2gzsP+M57a9Y6SpLH3h6SNjmjiX56X/7L7r4aKbS0yGGtRSSjR2v0ULu88KAgEBYAQ0VCWs2AMsKoGEMFIgwtA6qlEGEoWA6j4d0QHbGQAeMFovbCxYiNn57aSyIjY75oak9aT+kovRydJtUAFqgbiUoPNh3cwlVBb7stqIYVjexterAFNwtQy0JWSkRDp9CDzVhLWCmhYxgxC0a87lxhacRw8FUoYmXfkkdlBQCRBFdd6j16xzCcymvDE7yMEovAki7A7ElWqJB0N26jFFFsmN2b6hsaQQKWt2+C8Yr3cgUVYnk3RRDa/rmJwngtXJ3gGYUyTmGnd/UWSTFQqLZfh2h5MUI8UfZtrBh8JnpRmz9GslAfvYvvqSqZ6N2DHL0dZZDtfUfxtjGvLvog67EJFlL7cQvmhmt8LmCmkBxUmJKiJyYGkamzGwdmfJrklv3EGZfbi6ZO3k83SKrv9nwRx1jfyAYTi07URj1RG/VEbTxmh/9iaCxvwypgJUUc0SMhqV3sVr/OULMgpLbUJVYzwTQQtZmTqf9MjenXmP7CPdtzasg74WIIF0IDUXspLoYEBpGbCQzKCnGghiWKeSg6yfEnFjYkNSWxNxI7I7Ef3vuvBVZiEj6vubAaoYBsWoYcx/rxQsV5yBVBrgjyUIqkuyB2r0mO7OmI3Uxs/LTgtNbwhFq6i5+ZOxZ3deMuySYAuldHV0Od1V3UdYb/);points=[[0.19,0.1,0,0,0],[0.86,0.85,0,0,0]];" vertex="1" parent="1">
          <mxGeometry x="290" y="841.5" width="78" height="78" as="geometry" />
        </mxCell>
        <mxCell id="hLr_6GewXtSCxbk2koOT-38" value="&lt;h2 style=&quot;line-height: 80%;&quot;&gt;Prefixes&lt;/h2&gt;&lt;pre style=&quot;line-height: 80%; font-size: 18px;&quot;&gt;&lt;b style=&quot;&quot;&gt;&lt;font style=&quot;font-size: 18px;&quot;&gt;100.64.0.0/10&lt;/font&gt;&lt;/b&gt;&lt;/pre&gt;&lt;pre style=&quot;line-height: 80%; font-size: 18px;&quot;&gt;&lt;b&gt;&lt;font style=&quot;font-size: 18px;&quot;&gt;- 100.64.0.0/31&lt;/font&gt;&lt;/b&gt;&lt;/pre&gt;&lt;pre style=&quot;line-height: 80%; font-size: 18px;&quot;&gt;&lt;b&gt;&lt;font style=&quot;font-size: 18px;&quot;&gt;- 100.64.0.2/31&lt;/font&gt;&lt;/b&gt;&lt;/pre&gt;&lt;pre style=&quot;line-height: 80%; font-size: 18px;&quot;&gt;&lt;b style=&quot;&quot;&gt;&lt;font style=&quot;font-size: 18px;&quot;&gt;- etc.&lt;/font&gt;&lt;/b&gt;&lt;/pre&gt;&lt;pre style=&quot;line-height: 80%;&quot;&gt;&lt;br&gt;&lt;/pre&gt;" style="text;html=1;strokeColor=none;fillColor=none;spacing=5;spacingTop=-20;whiteSpace=wrap;overflow=hidden;rounded=0;fontSize=16;strokeWidth=1;" vertex="1" parent="1">
          <mxGeometry x="368" y="90" width="272" height="240" as="geometry" />
        </mxCell>
        <mxCell id="hLr_6GewXtSCxbk2koOT-13" value="10.0.0.0/8" style="sketch=0;outlineConnect=0;fontColor=#232F3E;gradientColor=none;fillColor=#232F3D;strokeColor=none;dashed=0;verticalLabelPosition=bottom;verticalAlign=top;align=center;html=1;fontSize=16;fontStyle=1;aspect=fixed;pointerEvents=1;shape=stencil(zVzhbuMoEH6a/EUwYDA/T72794jS9BpdN6nS7G337W+c1BgGmjqDiVqtFO04HuYbhvnM59gr/fD2vH7drkCu3163m9NK/7kCeNq9bx/xE83PF4vrhbT9xbRf/9herJvD8fVwXJ+G8x/XpzV+bLb70/Z4+eLb6Xj4d/tr93j68LLbP2+Pu9Pl6K+LrdNCdXow6b9W8g88MPzTD5vDfo8B7Q77t7Ptb3L86XDc/nM8/Nw/JgfC4d3Ly+bwcjgOMZ0/z6OtQD+d/y4xULfj2cchFSDfLyfB5cu/k/+N4cs0T911x0NYXxwuRy3Pf9edv66HRGcHxsM/Dv9tJ1DaCd0lwIwW1lyNf/T0sttHnowU1kMrV51CV+p2Vzm++Z42L4e37ZffSvMJRvRumYRCL0C5Vq64CS0AbJtRBcJIvUgaVCecWWZyCq64GS0AbJtRbYVUNk2DnJuGzc/jxZf6cNYJpf3lzHf4sBnh5AdNvOtg68xYgiof9ffHuUYJ6Mbv6WDrPCs4I3Rvs+DGjhDFFpqECkN60CQ0EMp7EhpOXj8rNtKXTNaXQDjvuCi7HGQAfmUGkHZl36cw0aatTmGizXrLDG6qBZhqxpDg4pocgzNCgifBmWllhOAMb+Hh3Ekw6STMdkVxojMvVYoTm4vWkAJFm/E6AzqBggL46lkY2lxnsugCy0bRTcyrCvUAhbrRtxYwmQadXzjMXlUloAEUFMBfmYZkfU/taOoDte0oqQco1I0uFObUkKa+OJ4b90+d2xpc3mjsIYSM2dQBIKwl3Rlt2AvSdKBNOtqfW1MH4MQrTYJTeO1Dg4ts9yKPZMxa9khAQQH8lVloTx9JPUChbnShMO/EH+BF16l0Gtj8oaUwQHlSin4s6ECUComyz4A25g8cVTl6laemTUUU3bTRuBN/JGPW8kcCCgrgr0xDc/5I6gEKdaMLhfmt+ENh2qxP54rNH0pivgmdeuEsaVxeWEkuaZqzhxfGKBpZ2OVNkU0bvztRh8/3mmzmiBFBjvvz9LenjbgMoFAtulCOd2IN5ZBHCXmzWQOd+Y4C7XHvRy530daZfHvVmDVwVCddFl0QTqLoJjHlTqyRjFnLGgkoKIC/Mg3NWSOpB4jqhtZIXJgxa5CVen/WyEVcsMKM8Vcqywu60gZdwe2ucnzzPS0kUnOzUFCWF3TFTWgBYNuMFjRcbhoKyvKCrrgZLQBsm9GCSI17PDOS3f1E6njUsQVifYX7oGMLRJuRvK0fW6XGMZ02JLZOSEkoHG3gF1GpMZN2zNrdVGoctPeEhbA+lCOXZGjr5Kx1sqBKjbZek40VNnTT0eAiW6VKPd/Vkip1AgoK4KtnoUalPtcDkOjiutG3FvCXKvX8VbWkSp2s76kfTX2guh/VyNRJZxyjizuozm13kan55FEjU7cnjxqdujV9FHRqPn/U6NTtCaRGp27NIAWdms8gNTp1ewap0albM0hBp+YzSI1O3Z5BaoTq78EgBaGazyB8obo9f7CV6tbkkSvVfO5gK9XtiaNCqW7NGwWlms8bNUp1e96oUapb80ZBqebzRo1S3Z43aqTq78EbuZTrBdhl5OXlPGH+wMLtrnJ08z0tJFQzk1AQl5fzxE1nAV7bfBZUXGYWCtLycp64+SzAa5vPgkht52ZhSY06GnRsfUiPjlyJYSrUnQVqh7GSwJzoFWHGXijWhipTp5E/jGL/UpypTp/pk9Ai2nwPKUrlhVa839jz1Wkc1BrKinJaE4EVJW/JFdTp+a6WVKcTUFAAXz0LNep0Ug9QqBt9awF/qU7PXlRLitPx4g7rfWoBtY2oRpmOG2LokVPb1Le272VkaTZd1KjSjemiRpJuShgFPZrPGDV6dHvKqNGjW3NGQY/mc0aNHt2eM2r06NacUdCj2ZxRI0c35owaLfobcEZBiGZzBl+HbswYbBG6KV3kCjSfLdgKdHuqqFCgWzNFQYHmM0WNAt2eKWoU6NZMUVCg2UxRI0A3Zooa9fkbMEWH/YTcrQkSwU17SSesMyxH2X7NCwCy5DqJlwCks8e2cFsljBl+eI6kneZzuMsy68mEFOEwHBEtnMF5ZrwHQgvpfeYJOI+xCUUfRhfG8cSsyVW44hHe0aRH9TLOlwBJHouKpkHfWAyMGi7UnmTMr+h8uhJwwjXvx19YYSSV6Iv05MkyJjIaL/Ai1hx9vklYNSuqFJ5M660TXrNasaS4HNDdYb4s3XALyKbQhtdC0ZvOse3GtekNWZvRW6duQ9jhLpjsvs7PEBGYsS3g7PPbiYjdBJVtxGmF5LxAZnrhVbTee1aNxq6iLptdOiSLK9S39eQnBDIFOGv9XV/r+gHtn7yW6tOXYZ1Pyl7vdbZeXlZ2NvwP);" vertex="1" parent="1">
          <mxGeometry x="990" y="337" width="53" height="78" as="geometry" />
        </mxCell>
        <mxCell id="hLr_6GewXtSCxbk2koOT-79" value="" style="outlineConnect=0;fontColor=#232F3E;gradientColor=none;fillColor=#4D27AA;strokeColor=none;dashed=0;verticalLabelPosition=bottom;verticalAlign=top;align=center;html=1;fontSize=12;fontStyle=0;aspect=fixed;pointerEvents=1;shape=stencil(rVjtsqIwDH0a/3bapkD5uXP37nuwiFfmKjh+rPD2C1SwCeCVqOOM0xROT5KTtHYFH6dtcshWWianQ5aeV/B7pfUmr7J189uYt85ijBsWyT5zlvRyOpf77NgYv5Jzdk1q98TpfCy/s2u+Pt9ezYttdszPbvbqw8HnSv5qjO0XPtKyKBoGeVmcOtsfMv83Sb+/juWlWKOJfnqT73ZpuStbQu63W2mlYdN93PoUtn872+3ywykbO3zFw8oNpRvVaDSm3FhmWDd8y2P2gzsP+M57a9Y6SpLH3h6SNjmjiX56X/7L7r4aKbS0yGGtRSSjR2v0ULu88KAgEBYAQ0VCWs2AMsKoGEMFIgwtA6qlEGEoWA6j4d0QHbGQAeMFovbCxYiNn57aSyIjY75oak9aT+kovRydJtUAFqgbiUoPNh3cwlVBb7stqIYVjexterAFNwtQy0JWSkRDp9CDzVhLWCmhYxgxC0a87lxhacRw8FUoYmXfkkdlBQCRBFdd6j16xzCcymvDE7yMEovAki7A7ElWqJB0N26jFFFsmN2b6hsaQQKWt2+C8Yr3cgUVYnk3RRDa/rmJwngtXJ3gGYUyTmGnd/UWSTFQqLZfh2h5MUI8UfZtrBh8JnpRmz9GslAfvYvvqSqZ6N2DHL0dZZDtfUfxtjGvLvog67EJFlL7cQvmhmt8LmCmkBxUmJKiJyYGkamzGwdmfJrklv3EGZfbi6ZO3k83SKrv9nwRx1jfyAYTi07URj1RG/VEbTxmh/9iaCxvwypgJUUc0SMhqV3sVr/OULMgpLbUJVYzwTQQtZmTqf9MjenXmP7CPdtzasg74WIIF0IDUXspLoYEBpGbCQzKCnGghiWKeSg6yfEnFjYkNSWxNxI7I7Ef3vuvBVZiEj6vubAaoYBsWoYcx/rxQsV5yBVBrgjyUIqkuyB2r0mO7OmI3Uxs/LTgtNbwhFq6i5+ZOxZ3deMuySYAuldHV0Od1V3UdYb/);shadow=0;" vertex="1" parent="1">
          <mxGeometry x="760" y="224" width="78" height="78" as="geometry" />
        </mxCell>
        <mxCell id="hLr_6GewXtSCxbk2koOT-80" value="" style="endArrow=classic;startArrow=classic;html=1;rounded=0;labelBackgroundColor=none;labelBorderColor=none;fontSize=12;" edge="1" parent="1" source="hLr_6GewXtSCxbk2koOT-79" target="hLr_6GewXtSCxbk2koOT-12">
          <mxGeometry width="50" height="50" relative="1" as="geometry">
            <mxPoint x="960" y="160" as="sourcePoint" />
            <mxPoint x="1010" y="110" as="targetPoint" />
          </mxGeometry>
        </mxCell>
        <mxCell id="hLr_6GewXtSCxbk2koOT-12" value="192.168.0.0/16" style="sketch=0;outlineConnect=0;fontColor=#232F3E;gradientColor=none;fillColor=#232F3D;strokeColor=none;dashed=0;verticalLabelPosition=bottom;verticalAlign=top;align=center;html=1;fontSize=16;fontStyle=1;aspect=fixed;pointerEvents=1;shape=stencil(tZrdcpswEIWfxrca/QHispM27+HaOGHqQAY7jfP2lcHCoN14YLvKZCbjJRx0Pkl7aKqNeTq9bt+rjZbb03u1O2/Mz43Wh/pS7f1PX34dKtaKTJuh1GzfqqHaHg717nrz74/6uK+bl+EXTueu/VN91vvz7e66ea26+jxc/Rxq2gmT9Yrm10b+8Beu3+Zp1zaNH0jdNqe+9hxdP7Rd9dK1H81+dmG8XB+Pu/bYdv7j8LN/2kab5/5rGEMsG+7udbsrh3GcSs9AKDt8vAwf3fDp63bxsfp1bAObdUPQ+WwIxsyGoOZD4BjD9xBl//X4Ee/b67yDC+HyW/u3uo9ea+H0zIGVvvLQRVA61s1UyaZTMpnIwsyvUgLulivtju3p+0nCaapSaFdACJowdJVSqseQrZdCDC6XIhH1a8GxUFB5OiUyTuAuMU0lDBcEk1KKDBQaTEs0F6VVLBRcQiUqTuguLU2/EPKchUGWUIlKE7pLSxNJP1+xPInMpuSXqy1yjmxfrsSU7WQISCDzSVGBIgYTE4XpR6SAJDKbEhkncJeYJhJ9VAhIIPNJkYFCg2mJIulHpIAkMpsSFSd0l5Ymkn5EBkgisylRaUJ3aWki6ZcJR3krQRKZT0kJm1FSDbpbrMSU7WQISCAzShGBYgbTEoXpR6SAJDKfEhUndJeWJhJ9VAhIIDNKUYEiBpMSRdKPSAFJZD4lIk7EXVKaSPoRGSCJzKdEpIm4S0oTpp9ywhnC3y5gIjMqWWFzx5Hty5WYsp0MAQYypxQRKGYwLVGQflQKMJEZlag4obu0NGH0kSHAQOaUogJFDCYlCtOPSgEmMqMSESfiLilNmH5UBjCRGZWINBF3qXtnKaPNoERhC1LLSyhlRBkOnKzsnmQlavcsMh4IJqUUlSf0l5Snby+3Y0H3/zjT97NHq15xEqio6x/6yvUqhXBlSVTafXQDIRVauc1uo7roUBrlLwaUvhR85Jcea1aGdm7GOSeZdMAkJfhLYS2/yHJPMe6JVsDtSy688QbeWt4fqRC2GpkD83+LCtkrK1YVbXNmecRVEseuwAzxKYnCkaZ6IhWm2k9rbqKp9tOfh399h7n2g5dmPtVyPsuSsqHy6MV1kUhsqxCFjBpGDhtGDhuGjAxNPJqVqON3SNAOibM/GcBqpZjT1V/ESc4ZyTmf6aPGDa4mi+O+wXNDeDmUM2M+wQqz7OhgbCwyNfEJ5zGYs0YUOupe02PAwdy0trJ7xc1kuRTYuYXIsmjnunt3HJv0pDb6nHrSiHezFn/k02FdeuF6AD6npjT0bhC2ClmYGlnAZvX+eRgh5snXvzkLPBwxRm7tbwJHvPvqcFC9L/wD);" vertex="1" parent="1">
          <mxGeometry x="991.5" y="224" width="50" height="78" as="geometry" />
        </mxCell>
        <mxCell id="hLr_6GewXtSCxbk2koOT-82" value="&lt;pre&gt;100.64.0.0/31&lt;/pre&gt;" style="endArrow=classic;startArrow=classic;html=1;rounded=0;labelBackgroundColor=none;labelBorderColor=none;fontSize=16;fontStyle=1;edgeStyle=orthogonalEdgeStyle;" edge="1" parent="1" source="hLr_6GewXtSCxbk2koOT-7" target="hLr_6GewXtSCxbk2koOT-79">
          <mxGeometry x="-0.4442" y="10" width="50" height="50" relative="1" as="geometry">
            <mxPoint x="680" y="200" as="sourcePoint" />
            <mxPoint x="730" y="150" as="targetPoint" />
            <Array as="points">
              <mxPoint x="559" y="310" />
              <mxPoint x="559" y="263" />
            </Array>
            <mxPoint as="offset" />
          </mxGeometry>
        </mxCell>
        <mxCell id="hLr_6GewXtSCxbk2koOT-86" value="" style="rounded=1;whiteSpace=wrap;html=1;fontSize=16;fillColor=#d5e8d4;strokeColor=#82b366;arcSize=8;" vertex="1" parent="1">
          <mxGeometry x="800" y="479" width="640" height="241" as="geometry" />
        </mxCell>
        <mxCell id="hLr_6GewXtSCxbk2koOT-87" value="Namespace &quot;Customer B&quot;" style="text;html=1;strokeColor=none;fillColor=none;align=center;verticalAlign=middle;whiteSpace=wrap;rounded=0;fontSize=32;" vertex="1" parent="1">
          <mxGeometry x="1080" y="491" width="280" height="60" as="geometry" />
        </mxCell>
        <mxCell id="hLr_6GewXtSCxbk2koOT-88" value="" style="sketch=0;outlineConnect=0;fontColor=#232F3E;gradientColor=none;fillColor=#4D27AA;strokeColor=none;dashed=0;verticalLabelPosition=bottom;verticalAlign=top;align=center;html=1;fontSize=12;fontStyle=0;aspect=fixed;pointerEvents=1;shape=stencil(rVjtsqIwDH0a/3bapkD5uXP37nuwiFfmKjh+rPD2C1SwCeCVqOOM0xROT5KTtHYFH6dtcshWWianQ5aeV/B7pfUmr7J189uYt85ijBsWyT5zlvRyOpf77NgYv5Jzdk1q98TpfCy/s2u+Pt9ezYttdszPbvbqw8HnSv5qjO0XPtKyKBoGeVmcOtsfMv83Sb+/juWlWKOJfnqT73ZpuStbQu63W2mlYdN93PoUtn872+3ywykbO3zFw8oNpRvVaDSm3FhmWDd8y2P2gzsP+M57a9Y6SpLH3h6SNjmjiX56X/7L7r4aKbS0yGGtRSSjR2v0ULu88KAgEBYAQ0VCWs2AMsKoGEMFIgwtA6qlEGEoWA6j4d0QHbGQAeMFovbCxYiNn57aSyIjY75oak9aT+kovRydJtUAFqgbiUoPNh3cwlVBb7stqIYVjexterAFNwtQy0JWSkRDp9CDzVhLWCmhYxgxC0a87lxhacRw8FUoYmXfkkdlBQCRBFdd6j16xzCcymvDE7yMEovAki7A7ElWqJB0N26jFFFsmN2b6hsaQQKWt2+C8Yr3cgUVYnk3RRDa/rmJwngtXJ3gGYUyTmGnd/UWSTFQqLZfh2h5MUI8UfZtrBh8JnpRmz9GslAfvYvvqSqZ6N2DHL0dZZDtfUfxtjGvLvog67EJFlL7cQvmhmt8LmCmkBxUmJKiJyYGkamzGwdmfJrklv3EGZfbi6ZO3k83SKrv9nwRx1jfyAYTi07URj1RG/VEbTxmh/9iaCxvwypgJUUc0SMhqV3sVr/OULMgpLbUJVYzwTQQtZmTqf9MjenXmP7CPdtzasg74WIIF0IDUXspLoYEBpGbCQzKCnGghiWKeSg6yfEnFjYkNSWxNxI7I7Ef3vuvBVZiEj6vubAaoYBsWoYcx/rxQsV5yBVBrgjyUIqkuyB2r0mO7OmI3Uxs/LTgtNbwhFq6i5+ZOxZ3deMuySYAuldHV0Od1V3UdYb/);" vertex="1" parent="1">
          <mxGeometry x="760" y="616" width="78" height="78" as="geometry" />
        </mxCell>
        <mxCell id="hLr_6GewXtSCxbk2koOT-89" value="" style="endArrow=classic;startArrow=classic;html=1;rounded=0;fontSize=16;edgeStyle=orthogonalEdgeStyle;" edge="1" parent="1" source="hLr_6GewXtSCxbk2koOT-88" target="hLr_6GewXtSCxbk2koOT-91">
          <mxGeometry width="50" height="50" relative="1" as="geometry">
            <mxPoint x="1020" y="660" as="sourcePoint" />
            <mxPoint x="1070" y="610" as="targetPoint" />
          </mxGeometry>
        </mxCell>
        <mxCell id="hLr_6GewXtSCxbk2koOT-91" value="10.0.0.0/8" style="sketch=0;outlineConnect=0;fontColor=#232F3E;gradientColor=none;fillColor=#232F3D;strokeColor=none;dashed=0;verticalLabelPosition=bottom;verticalAlign=top;align=center;html=1;fontSize=16;fontStyle=1;aspect=fixed;pointerEvents=1;shape=stencil(zVzhbuMoEH6a/EUwYDA/T72794jS9BpdN6nS7G337W+c1BgGmjqDiVqtFO04HuYbhvnM59gr/fD2vH7drkCu3163m9NK/7kCeNq9bx/xE83PF4vrhbT9xbRf/9herJvD8fVwXJ+G8x/XpzV+bLb70/Z4+eLb6Xj4d/tr93j68LLbP2+Pu9Pl6K+LrdNCdXow6b9W8g88MPzTD5vDfo8B7Q77t7Ptb3L86XDc/nM8/Nw/JgfC4d3Ly+bwcjgOMZ0/z6OtQD+d/y4xULfj2cchFSDfLyfB5cu/k/+N4cs0T911x0NYXxwuRy3Pf9edv66HRGcHxsM/Dv9tJ1DaCd0lwIwW1lyNf/T0sttHnowU1kMrV51CV+p2Vzm++Z42L4e37ZffSvMJRvRumYRCL0C5Vq64CS0AbJtRBcJIvUgaVCecWWZyCq64GS0AbJtRbYVUNk2DnJuGzc/jxZf6cNYJpf3lzHf4sBnh5AdNvOtg68xYgiof9ffHuUYJ6Mbv6WDrPCs4I3Rvs+DGjhDFFpqECkN60CQ0EMp7EhpOXj8rNtKXTNaXQDjvuCi7HGQAfmUGkHZl36cw0aatTmGizXrLDG6qBZhqxpDg4pocgzNCgifBmWllhOAMb+Hh3Ekw6STMdkVxojMvVYoTm4vWkAJFm/E6AzqBggL46lkY2lxnsugCy0bRTcyrCvUAhbrRtxYwmQadXzjMXlUloAEUFMBfmYZkfU/taOoDte0oqQco1I0uFObUkKa+OJ4b90+d2xpc3mjsIYSM2dQBIKwl3Rlt2AvSdKBNOtqfW1MH4MQrTYJTeO1Dg4ts9yKPZMxa9khAQQH8lVloTx9JPUChbnShMO/EH+BF16l0Gtj8oaUwQHlSin4s6ECUComyz4A25g8cVTl6laemTUUU3bTRuBN/JGPW8kcCCgrgr0xDc/5I6gEKdaMLhfmt+ENh2qxP54rNH0pivgmdeuEsaVxeWEkuaZqzhxfGKBpZ2OVNkU0bvztRh8/3mmzmiBFBjvvz9LenjbgMoFAtulCOd2IN5ZBHCXmzWQOd+Y4C7XHvRy530daZfHvVmDVwVCddFl0QTqLoJjHlTqyRjFnLGgkoKIC/Mg3NWSOpB4jqhtZIXJgxa5CVen/WyEVcsMKM8Vcqywu60gZdwe2ucnzzPS0kUnOzUFCWF3TFTWgBYNuMFjRcbhoKyvKCrrgZLQBsm9GCSI17PDOS3f1E6njUsQVifYX7oGMLRJuRvK0fW6XGMZ02JLZOSEkoHG3gF1GpMZN2zNrdVGoctPeEhbA+lCOXZGjr5Kx1sqBKjbZek40VNnTT0eAiW6VKPd/Vkip1AgoK4KtnoUalPtcDkOjiutG3FvCXKvX8VbWkSp2s76kfTX2guh/VyNRJZxyjizuozm13kan55FEjU7cnjxqdujV9FHRqPn/U6NTtCaRGp27NIAWdms8gNTp1ewap0albM0hBp+YzSI1O3Z5BaoTq78EgBaGazyB8obo9f7CV6tbkkSvVfO5gK9XtiaNCqW7NGwWlms8bNUp1e96oUapb80ZBqebzRo1S3Z43aqTq78EbuZTrBdhl5OXlPGH+wMLtrnJ08z0tJFQzk1AQl5fzxE1nAV7bfBZUXGYWCtLycp64+SzAa5vPgkht52ZhSY06GnRsfUiPjlyJYSrUnQVqh7GSwJzoFWHGXijWhipTp5E/jGL/UpypTp/pk9Ai2nwPKUrlhVa839jz1Wkc1BrKinJaE4EVJW/JFdTp+a6WVKcTUFAAXz0LNep0Ug9QqBt9awF/qU7PXlRLitPx4g7rfWoBtY2oRpmOG2LokVPb1Le272VkaTZd1KjSjemiRpJuShgFPZrPGDV6dHvKqNGjW3NGQY/mc0aNHt2eM2r06NacUdCj2ZxRI0c35owaLfobcEZBiGZzBl+HbswYbBG6KV3kCjSfLdgKdHuqqFCgWzNFQYHmM0WNAt2eKWoU6NZMUVCg2UxRI0A3Zooa9fkbMEWH/YTcrQkSwU17SSesMyxH2X7NCwCy5DqJlwCks8e2cFsljBl+eI6kneZzuMsy68mEFOEwHBEtnMF5ZrwHQgvpfeYJOI+xCUUfRhfG8cSsyVW44hHe0aRH9TLOlwBJHouKpkHfWAyMGi7UnmTMr+h8uhJwwjXvx19YYSSV6Iv05MkyJjIaL/Ai1hx9vklYNSuqFJ5M660TXrNasaS4HNDdYb4s3XALyKbQhtdC0ZvOse3GtekNWZvRW6duQ9jhLpjsvs7PEBGYsS3g7PPbiYjdBJVtxGmF5LxAZnrhVbTee1aNxq6iLptdOiSLK9S39eQnBDIFOGv9XV/r+gHtn7yW6tOXYZ1Pyl7vdbZeXlZ2NvwP);" vertex="1" parent="1">
          <mxGeometry x="990" y="616" width="53" height="78" as="geometry" />
        </mxCell>
        <mxCell id="hLr_6GewXtSCxbk2koOT-92" value="" style="sketch=0;outlineConnect=0;fontColor=#232F3E;gradientColor=none;fillColor=#4D27AA;strokeColor=none;dashed=0;verticalLabelPosition=bottom;verticalAlign=top;align=center;html=1;fontSize=12;fontStyle=0;aspect=fixed;pointerEvents=1;shape=stencil(rVjtsqIwDH0a/3bapkD5uXP37nuwiFfmKjh+rPD2C1SwCeCVqOOM0xROT5KTtHYFH6dtcshWWianQ5aeV/B7pfUmr7J189uYt85ijBsWyT5zlvRyOpf77NgYv5Jzdk1q98TpfCy/s2u+Pt9ezYttdszPbvbqw8HnSv5qjO0XPtKyKBoGeVmcOtsfMv83Sb+/juWlWKOJfnqT73ZpuStbQu63W2mlYdN93PoUtn872+3ywykbO3zFw8oNpRvVaDSm3FhmWDd8y2P2gzsP+M57a9Y6SpLH3h6SNjmjiX56X/7L7r4aKbS0yGGtRSSjR2v0ULu88KAgEBYAQ0VCWs2AMsKoGEMFIgwtA6qlEGEoWA6j4d0QHbGQAeMFovbCxYiNn57aSyIjY75oak9aT+kovRydJtUAFqgbiUoPNh3cwlVBb7stqIYVjexterAFNwtQy0JWSkRDp9CDzVhLWCmhYxgxC0a87lxhacRw8FUoYmXfkkdlBQCRBFdd6j16xzCcymvDE7yMEovAki7A7ElWqJB0N26jFFFsmN2b6hsaQQKWt2+C8Yr3cgUVYnk3RRDa/rmJwngtXJ3gGYUyTmGnd/UWSTFQqLZfh2h5MUI8UfZtrBh8JnpRmz9GslAfvYvvqSqZ6N2DHL0dZZDtfUfxtjGvLvog67EJFlL7cQvmhmt8LmCmkBxUmJKiJyYGkamzGwdmfJrklv3EGZfbi6ZO3k83SKrv9nwRx1jfyAYTi07URj1RG/VEbTxmh/9iaCxvwypgJUUc0SMhqV3sVr/OULMgpLbUJVYzwTQQtZmTqf9MjenXmP7CPdtzasg74WIIF0IDUXspLoYEBpGbCQzKCnGghiWKeSg6yfEnFjYkNSWxNxI7I7Ef3vuvBVZiEj6vubAaoYBsWoYcx/rxQsV5yBVBrgjyUIqkuyB2r0mO7OmI3Uxs/LTgtNbwhFq6i5+ZOxZ3deMuySYAuldHV0Od1V3UdYb/);" vertex="1" parent="1">
          <mxGeometry x="760" y="503" width="78" height="78" as="geometry" />
        </mxCell>
        <mxCell id="hLr_6GewXtSCxbk2koOT-93" value="" style="endArrow=classic;startArrow=classic;html=1;rounded=0;labelBackgroundColor=none;labelBorderColor=none;fontSize=12;" edge="1" parent="1" source="hLr_6GewXtSCxbk2koOT-92" target="hLr_6GewXtSCxbk2koOT-94">
          <mxGeometry width="50" height="50" relative="1" as="geometry">
            <mxPoint x="960" y="439" as="sourcePoint" />
            <mxPoint x="1010" y="389" as="targetPoint" />
          </mxGeometry>
        </mxCell>
        <mxCell id="hLr_6GewXtSCxbk2koOT-94" value="172.16.0.0/12" style="sketch=0;outlineConnect=0;fontColor=#232F3E;gradientColor=none;fillColor=#232F3D;strokeColor=none;dashed=0;verticalLabelPosition=bottom;verticalAlign=top;align=center;html=1;fontSize=16;fontStyle=1;aspect=fixed;pointerEvents=1;shape=stencil(tZrdcpswEIWfxrca/QHispM27+HaOGHqQAY7jfP2lcHCoN14YLvKZCbjJRx0Pkl7aKqNeTq9bt+rjZbb03u1O2/Mz43Wh/pS7f1PX34dKtaKTJuh1GzfqqHaHg717nrz74/6uK+bl+EXTueu/VN91vvz7e66ea26+jxc/Rxq2gmT9Yrm10b+8Beu3+Zp1zaNH0jdNqe+9hxdP7Rd9dK1H81+dmG8XB+Pu/bYdv7j8LN/2kab5/5rGEMsG+7udbsrh3GcSs9AKDt8vAwf3fDp63bxsfp1bAObdUPQ+WwIxsyGoOZD4BjD9xBl//X4Ee/b67yDC+HyW/u3uo9ea+H0zIGVvvLQRVA61s1UyaZTMpnIwsyvUgLulivtju3p+0nCaapSaFdACJowdJVSqseQrZdCDC6XIhH1a8GxUFB5OiUyTuAuMU0lDBcEk1KKDBQaTEs0F6VVLBRcQiUqTuguLU2/EPKchUGWUIlKE7pLSxNJP1+xPInMpuSXqy1yjmxfrsSU7WQISCDzSVGBIgYTE4XpR6SAJDKbEhkncJeYJhJ9VAhIIPNJkYFCg2mJIulHpIAkMpsSFSd0l5Ymkn5EBkgisylRaUJ3aWki6ZcJR3krQRKZT0kJm1FSDbpbrMSU7WQISCAzShGBYgbTEoXpR6SAJDKfEhUndJeWJhJ9VAhIIDNKUYEiBpMSRdKPSAFJZD4lIk7EXVKaSPoRGSCJzKdEpIm4S0oTpp9ywhnC3y5gIjMqWWFzx5Hty5WYsp0MAQYypxQRKGYwLVGQflQKMJEZlag4obu0NGH0kSHAQOaUogJFDCYlCtOPSgEmMqMSESfiLilNmH5UBjCRGZWINBF3qXtnKaPNoERhC1LLSyhlRBkOnKzsnmQlavcsMh4IJqUUlSf0l5Snby+3Y0H3/zjT97NHq15xEqio6x/6yvUqhXBlSVTafXQDIRVauc1uo7roUBrlLwaUvhR85Jcea1aGdm7GOSeZdMAkJfhLYS2/yHJPMe6JVsDtSy688QbeWt4fqRC2GpkD83+LCtkrK1YVbXNmecRVEseuwAzxKYnCkaZ6IhWm2k9rbqKp9tOfh399h7n2g5dmPtVyPsuSsqHy6MV1kUhsqxCFjBpGDhtGDhuGjAxNPJqVqON3SNAOibM/GcBqpZjT1V/ESc4ZyTmf6aPGDa4mi+O+wXNDeDmUM2M+wQqz7OhgbCwyNfEJ5zGYs0YUOupe02PAwdy0trJ7xc1kuRTYuYXIsmjnunt3HJv0pDb6nHrSiHezFn/k02FdeuF6AD6npjT0bhC2ClmYGlnAZvX+eRgh5snXvzkLPBwxRm7tbwJHvPvqcFC9L/wD);backgroundOutline=0;" vertex="1" parent="1">
          <mxGeometry x="991.5" y="503" width="50" height="78" as="geometry" />
        </mxCell>
        <mxCell id="hLr_6GewXtSCxbk2koOT-95" value="" style="rounded=1;whiteSpace=wrap;html=1;fontSize=16;fillColor=#ffe6cc;strokeColor=#d79b00;arcSize=8;" vertex="1" parent="1">
          <mxGeometry x="800" y="760" width="640" height="241" as="geometry" />
        </mxCell>
        <mxCell id="hLr_6GewXtSCxbk2koOT-96" value="Namespace &quot;Customer C&quot;" style="text;html=1;strokeColor=none;fillColor=none;align=center;verticalAlign=middle;whiteSpace=wrap;rounded=0;fontSize=32;" vertex="1" parent="1">
          <mxGeometry x="1080" y="772" width="280" height="60" as="geometry" />
        </mxCell>
        <mxCell id="hLr_6GewXtSCxbk2koOT-97" value="" style="sketch=0;outlineConnect=0;fontColor=#232F3E;gradientColor=none;fillColor=#4D27AA;strokeColor=none;dashed=0;verticalLabelPosition=bottom;verticalAlign=top;align=center;html=1;fontSize=12;fontStyle=0;aspect=fixed;pointerEvents=1;shape=stencil(rVjtsqIwDH0a/3bapkD5uXP37nuwiFfmKjh+rPD2C1SwCeCVqOOM0xROT5KTtHYFH6dtcshWWianQ5aeV/B7pfUmr7J189uYt85ijBsWyT5zlvRyOpf77NgYv5Jzdk1q98TpfCy/s2u+Pt9ezYttdszPbvbqw8HnSv5qjO0XPtKyKBoGeVmcOtsfMv83Sb+/juWlWKOJfnqT73ZpuStbQu63W2mlYdN93PoUtn872+3ywykbO3zFw8oNpRvVaDSm3FhmWDd8y2P2gzsP+M57a9Y6SpLH3h6SNjmjiX56X/7L7r4aKbS0yGGtRSSjR2v0ULu88KAgEBYAQ0VCWs2AMsKoGEMFIgwtA6qlEGEoWA6j4d0QHbGQAeMFovbCxYiNn57aSyIjY75oak9aT+kovRydJtUAFqgbiUoPNh3cwlVBb7stqIYVjexterAFNwtQy0JWSkRDp9CDzVhLWCmhYxgxC0a87lxhacRw8FUoYmXfkkdlBQCRBFdd6j16xzCcymvDE7yMEovAki7A7ElWqJB0N26jFFFsmN2b6hsaQQKWt2+C8Yr3cgUVYnk3RRDa/rmJwngtXJ3gGYUyTmGnd/UWSTFQqLZfh2h5MUI8UfZtrBh8JnpRmz9GslAfvYvvqSqZ6N2DHL0dZZDtfUfxtjGvLvog67EJFlL7cQvmhmt8LmCmkBxUmJKiJyYGkamzGwdmfJrklv3EGZfbi6ZO3k83SKrv9nwRx1jfyAYTi07URj1RG/VEbTxmh/9iaCxvwypgJUUc0SMhqV3sVr/OULMgpLbUJVYzwTQQtZmTqf9MjenXmP7CPdtzasg74WIIF0IDUXspLoYEBpGbCQzKCnGghiWKeSg6yfEnFjYkNSWxNxI7I7Ef3vuvBVZiEj6vubAaoYBsWoYcx/rxQsV5yBVBrgjyUIqkuyB2r0mO7OmI3Uxs/LTgtNbwhFq6i5+ZOxZ3deMuySYAuldHV0Od1V3UdYb/);" vertex="1" parent="1">
          <mxGeometry x="760" y="897" width="78" height="78" as="geometry" />
        </mxCell>
        <mxCell id="hLr_6GewXtSCxbk2koOT-98" value="" style="endArrow=classic;startArrow=classic;html=1;rounded=0;fontSize=16;edgeStyle=orthogonalEdgeStyle;" edge="1" parent="1" source="hLr_6GewXtSCxbk2koOT-97" target="hLr_6GewXtSCxbk2koOT-100">
          <mxGeometry width="50" height="50" relative="1" as="geometry">
            <mxPoint x="1020" y="941" as="sourcePoint" />
            <mxPoint x="1070" y="891" as="targetPoint" />
          </mxGeometry>
        </mxCell>
        <mxCell id="hLr_6GewXtSCxbk2koOT-100" value="192.168.0.0/23" style="sketch=0;outlineConnect=0;fontColor=#232F3E;gradientColor=none;fillColor=#232F3D;strokeColor=none;dashed=0;verticalLabelPosition=bottom;verticalAlign=top;align=center;html=1;fontSize=16;fontStyle=1;aspect=fixed;pointerEvents=1;shape=stencil(zVzhbuMoEH6a/EUwYDA/T72794jS9BpdN6nS7G337W+c1BgGmjqDiVqtFO04HuYbhvnM59gr/fD2vH7drkCu3163m9NK/7kCeNq9bx/xE83PF4vrhbT9xbRf/9herJvD8fVwXJ+G8x/XpzV+bLb70/Z4+eLb6Xj4d/tr93j68LLbP2+Pu9Pl6K+LrdNCdXow6b9W8g88MPzTD5vDfo8B7Q77t7Ptb3L86XDc/nM8/Nw/JgfC4d3Ly+bwcjgOMZ0/z6OtQD+d/y4xULfj2cchFSDfLyfB5cu/k/+N4cs0T911x0NYXxwuRy3Pf9edv66HRGcHxsM/Dv9tJ1DaCd0lwIwW1lyNf/T0sttHnowU1kMrV51CV+p2Vzm++Z42L4e37ZffSvMJRvRumYRCL0C5Vq64CS0AbJtRBcJIvUgaVCecWWZyCq64GS0AbJtRbYVUNk2DnJuGzc/jxZf6cNYJpf3lzHf4sBnh5AdNvOtg68xYgiof9ffHuUYJ6Mbv6WDrPCs4I3Rvs+DGjhDFFpqECkN60CQ0EMp7EhpOXj8rNtKXTNaXQDjvuCi7HGQAfmUGkHZl36cw0aatTmGizXrLDG6qBZhqxpDg4pocgzNCgifBmWllhOAMb+Hh3Ekw6STMdkVxojMvVYoTm4vWkAJFm/E6AzqBggL46lkY2lxnsugCy0bRTcyrCvUAhbrRtxYwmQadXzjMXlUloAEUFMBfmYZkfU/taOoDte0oqQco1I0uFObUkKa+OJ4b90+d2xpc3mjsIYSM2dQBIKwl3Rlt2AvSdKBNOtqfW1MH4MQrTYJTeO1Dg4ts9yKPZMxa9khAQQH8lVloTx9JPUChbnShMO/EH+BF16l0Gtj8oaUwQHlSin4s6ECUComyz4A25g8cVTl6laemTUUU3bTRuBN/JGPW8kcCCgrgr0xDc/5I6gEKdaMLhfmt+ENh2qxP54rNH0pivgmdeuEsaVxeWEkuaZqzhxfGKBpZ2OVNkU0bvztRh8/3mmzmiBFBjvvz9LenjbgMoFAtulCOd2IN5ZBHCXmzWQOd+Y4C7XHvRy530daZfHvVmDVwVCddFl0QTqLoJjHlTqyRjFnLGgkoKIC/Mg3NWSOpB4jqhtZIXJgxa5CVen/WyEVcsMKM8Vcqywu60gZdwe2ucnzzPS0kUnOzUFCWF3TFTWgBYNuMFjRcbhoKyvKCrrgZLQBsm9GCSI17PDOS3f1E6njUsQVifYX7oGMLRJuRvK0fW6XGMZ02JLZOSEkoHG3gF1GpMZN2zNrdVGoctPeEhbA+lCOXZGjr5Kx1sqBKjbZek40VNnTT0eAiW6VKPd/Vkip1AgoK4KtnoUalPtcDkOjiutG3FvCXKvX8VbWkSp2s76kfTX2guh/VyNRJZxyjizuozm13kan55FEjU7cnjxqdujV9FHRqPn/U6NTtCaRGp27NIAWdms8gNTp1ewap0albM0hBp+YzSI1O3Z5BaoTq78EgBaGazyB8obo9f7CV6tbkkSvVfO5gK9XtiaNCqW7NGwWlms8bNUp1e96oUapb80ZBqebzRo1S3Z43aqTq78EbuZTrBdhl5OXlPGH+wMLtrnJ08z0tJFQzk1AQl5fzxE1nAV7bfBZUXGYWCtLycp64+SzAa5vPgkht52ZhSY06GnRsfUiPjlyJYSrUnQVqh7GSwJzoFWHGXijWhipTp5E/jGL/UpypTp/pk9Ai2nwPKUrlhVa839jz1Wkc1BrKinJaE4EVJW/JFdTp+a6WVKcTUFAAXz0LNep0Ug9QqBt9awF/qU7PXlRLitPx4g7rfWoBtY2oRpmOG2LokVPb1Le272VkaTZd1KjSjemiRpJuShgFPZrPGDV6dHvKqNGjW3NGQY/mc0aNHt2eM2r06NacUdCj2ZxRI0c35owaLfobcEZBiGZzBl+HbswYbBG6KV3kCjSfLdgKdHuqqFCgWzNFQYHmM0WNAt2eKWoU6NZMUVCg2UxRI0A3Zooa9fkbMEWH/YTcrQkSwU17SSesMyxH2X7NCwCy5DqJlwCks8e2cFsljBl+eI6kneZzuMsy68mEFOEwHBEtnMF5ZrwHQgvpfeYJOI+xCUUfRhfG8cSsyVW44hHe0aRH9TLOlwBJHouKpkHfWAyMGi7UnmTMr+h8uhJwwjXvx19YYSSV6Iv05MkyJjIaL/Ai1hx9vklYNSuqFJ5M660TXrNasaS4HNDdYb4s3XALyKbQhtdC0ZvOse3GtekNWZvRW6duQ9jhLpjsvs7PEBGYsS3g7PPbiYjdBJVtxGmF5LxAZnrhVbTee1aNxq6iLptdOiSLK9S39eQnBDIFOGv9XV/r+gHtn7yW6tOXYZ1Pyl7vdbZeXlZ2NvwP);" vertex="1" parent="1">
          <mxGeometry x="990" y="897" width="53" height="78" as="geometry" />
        </mxCell>
        <mxCell id="hLr_6GewXtSCxbk2koOT-101" value="" style="sketch=0;outlineConnect=0;fontColor=#232F3E;gradientColor=none;fillColor=#4D27AA;strokeColor=none;dashed=0;verticalLabelPosition=bottom;verticalAlign=top;align=center;html=1;fontSize=12;fontStyle=0;aspect=fixed;pointerEvents=1;shape=stencil(rVjtsqIwDH0a/3bapkD5uXP37nuwiFfmKjh+rPD2C1SwCeCVqOOM0xROT5KTtHYFH6dtcshWWianQ5aeV/B7pfUmr7J189uYt85ijBsWyT5zlvRyOpf77NgYv5Jzdk1q98TpfCy/s2u+Pt9ezYttdszPbvbqw8HnSv5qjO0XPtKyKBoGeVmcOtsfMv83Sb+/juWlWKOJfnqT73ZpuStbQu63W2mlYdN93PoUtn872+3ywykbO3zFw8oNpRvVaDSm3FhmWDd8y2P2gzsP+M57a9Y6SpLH3h6SNjmjiX56X/7L7r4aKbS0yGGtRSSjR2v0ULu88KAgEBYAQ0VCWs2AMsKoGEMFIgwtA6qlEGEoWA6j4d0QHbGQAeMFovbCxYiNn57aSyIjY75oak9aT+kovRydJtUAFqgbiUoPNh3cwlVBb7stqIYVjexterAFNwtQy0JWSkRDp9CDzVhLWCmhYxgxC0a87lxhacRw8FUoYmXfkkdlBQCRBFdd6j16xzCcymvDE7yMEovAki7A7ElWqJB0N26jFFFsmN2b6hsaQQKWt2+C8Yr3cgUVYnk3RRDa/rmJwngtXJ3gGYUyTmGnd/UWSTFQqLZfh2h5MUI8UfZtrBh8JnpRmz9GslAfvYvvqSqZ6N2DHL0dZZDtfUfxtjGvLvog67EJFlL7cQvmhmt8LmCmkBxUmJKiJyYGkamzGwdmfJrklv3EGZfbi6ZO3k83SKrv9nwRx1jfyAYTi07URj1RG/VEbTxmh/9iaCxvwypgJUUc0SMhqV3sVr/OULMgpLbUJVYzwTQQtZmTqf9MjenXmP7CPdtzasg74WIIF0IDUXspLoYEBpGbCQzKCnGghiWKeSg6yfEnFjYkNSWxNxI7I7Ef3vuvBVZiEj6vubAaoYBsWoYcx/rxQsV5yBVBrgjyUIqkuyB2r0mO7OmI3Uxs/LTgtNbwhFq6i5+ZOxZ3deMuySYAuldHV0Od1V3UdYb/);" vertex="1" parent="1">
          <mxGeometry x="760" y="784" width="78" height="78" as="geometry" />
        </mxCell>
        <mxCell id="hLr_6GewXtSCxbk2koOT-102" value="" style="endArrow=classic;startArrow=classic;html=1;rounded=0;labelBackgroundColor=none;labelBorderColor=none;fontSize=12;" edge="1" parent="1" source="hLr_6GewXtSCxbk2koOT-101" target="hLr_6GewXtSCxbk2koOT-103">
          <mxGeometry width="50" height="50" relative="1" as="geometry">
            <mxPoint x="960" y="720" as="sourcePoint" />
            <mxPoint x="1010" y="670" as="targetPoint" />
          </mxGeometry>
        </mxCell>
        <mxCell id="hLr_6GewXtSCxbk2koOT-103" value="192.168.2.0/23" style="sketch=0;outlineConnect=0;fontColor=#232F3E;gradientColor=none;fillColor=#232F3D;strokeColor=none;dashed=0;verticalLabelPosition=bottom;verticalAlign=top;align=center;html=1;fontSize=16;fontStyle=1;aspect=fixed;pointerEvents=1;shape=stencil(tZrdcpswEIWfxrca/QHispM27+HaOGHqQAY7jfP2lcHCoN14YLvKZCbjJRx0Pkl7aKqNeTq9bt+rjZbb03u1O2/Mz43Wh/pS7f1PX34dKtaKTJuh1GzfqqHaHg717nrz74/6uK+bl+EXTueu/VN91vvz7e66ea26+jxc/Rxq2gmT9Yrm10b+8Beu3+Zp1zaNH0jdNqe+9hxdP7Rd9dK1H81+dmG8XB+Pu/bYdv7j8LN/2kab5/5rGEMsG+7udbsrh3GcSs9AKDt8vAwf3fDp63bxsfp1bAObdUPQ+WwIxsyGoOZD4BjD9xBl//X4Ee/b67yDC+HyW/u3uo9ea+H0zIGVvvLQRVA61s1UyaZTMpnIwsyvUgLulivtju3p+0nCaapSaFdACJowdJVSqseQrZdCDC6XIhH1a8GxUFB5OiUyTuAuMU0lDBcEk1KKDBQaTEs0F6VVLBRcQiUqTuguLU2/EPKchUGWUIlKE7pLSxNJP1+xPInMpuSXqy1yjmxfrsSU7WQISCDzSVGBIgYTE4XpR6SAJDKbEhkncJeYJhJ9VAhIIPNJkYFCg2mJIulHpIAkMpsSFSd0l5Ymkn5EBkgisylRaUJ3aWki6ZcJR3krQRKZT0kJm1FSDbpbrMSU7WQISCAzShGBYgbTEoXpR6SAJDKfEhUndJeWJhJ9VAhIIDNKUYEiBpMSRdKPSAFJZD4lIk7EXVKaSPoRGSCJzKdEpIm4S0oTpp9ywhnC3y5gIjMqWWFzx5Hty5WYsp0MAQYypxQRKGYwLVGQflQKMJEZlag4obu0NGH0kSHAQOaUogJFDCYlCtOPSgEmMqMSESfiLilNmH5UBjCRGZWINBF3qXtnKaPNoERhC1LLSyhlRBkOnKzsnmQlavcsMh4IJqUUlSf0l5Snby+3Y0H3/zjT97NHq15xEqio6x/6yvUqhXBlSVTafXQDIRVauc1uo7roUBrlLwaUvhR85Jcea1aGdm7GOSeZdMAkJfhLYS2/yHJPMe6JVsDtSy688QbeWt4fqRC2GpkD83+LCtkrK1YVbXNmecRVEseuwAzxKYnCkaZ6IhWm2k9rbqKp9tOfh399h7n2g5dmPtVyPsuSsqHy6MV1kUhsqxCFjBpGDhtGDhuGjAxNPJqVqON3SNAOibM/GcBqpZjT1V/ESc4ZyTmf6aPGDa4mi+O+wXNDeDmUM2M+wQqz7OhgbCwyNfEJ5zGYs0YUOupe02PAwdy0trJ7xc1kuRTYuYXIsmjnunt3HJv0pDb6nHrSiHezFn/k02FdeuF6AD6npjT0bhC2ClmYGlnAZvX+eRgh5snXvzkLPBwxRm7tbwJHvPvqcFC9L/wD);" vertex="1" parent="1">
          <mxGeometry x="991.5" y="784" width="50" height="78" as="geometry" />
        </mxCell>
        <mxCell id="hLr_6GewXtSCxbk2koOT-35" value="&lt;h2 style=&quot;line-height: 80%;&quot;&gt;Prefixes&lt;/h2&gt;&lt;pre style=&quot;line-height: 80%; font-size: 18px;&quot;&gt;&lt;b style=&quot;&quot;&gt;&lt;font style=&quot;font-size: 18px;&quot;&gt;192.168.0.0/23&lt;/font&gt;&lt;/b&gt;&lt;/pre&gt;&lt;pre style=&quot;line-height: 80%; font-size: 18px;&quot;&gt;&lt;b style=&quot;&quot;&gt;&lt;font style=&quot;font-size: 18px;&quot;&gt;192.168.2.0/23&lt;/font&gt;&lt;/b&gt;&lt;/pre&gt;" style="text;html=1;strokeColor=none;fillColor=none;spacing=5;spacingTop=-20;whiteSpace=wrap;overflow=hidden;rounded=0;fontSize=16;strokeWidth=1;" vertex="1" parent="1">
          <mxGeometry x="1145" y="862" width="235" height="99" as="geometry" />
        </mxCell>
        <mxCell id="hLr_6GewXtSCxbk2koOT-25" value="&lt;h2 style=&quot;line-height: 80%;&quot;&gt;Prefixes&lt;/h2&gt;&lt;pre style=&quot;line-height: 80%; font-size: 18px;&quot;&gt;&lt;b style=&quot;&quot;&gt;&lt;font style=&quot;font-size: 18px;&quot;&gt;10.0.0.0/8&lt;/font&gt;&lt;/b&gt;&lt;/pre&gt;&lt;pre style=&quot;line-height: 80%; font-size: 18px;&quot;&gt;&lt;b style=&quot;&quot;&gt;&lt;font style=&quot;font-size: 18px;&quot;&gt;172.16.0.0/12&lt;/font&gt;&lt;/b&gt;&lt;/pre&gt;" style="text;html=1;strokeColor=none;fillColor=none;spacing=5;spacingTop=-20;whiteSpace=wrap;overflow=hidden;rounded=0;fontSize=16;strokeWidth=1;" vertex="1" parent="1">
          <mxGeometry x="1145" y="584" width="235" height="98" as="geometry" />
        </mxCell>
        <mxCell id="hLr_6GewXtSCxbk2koOT-105" value="&lt;pre&gt;100.64.0.10/31&lt;/pre&gt;" style="endArrow=classic;startArrow=classic;html=1;rounded=0;labelBackgroundColor=none;labelBorderColor=none;fontSize=16;fontStyle=1;edgeStyle=orthogonalEdgeStyle;" edge="1" parent="1" source="hLr_6GewXtSCxbk2koOT-36" target="hLr_6GewXtSCxbk2koOT-97">
          <mxGeometry x="-0.4612" y="-10" width="50" height="50" relative="1" as="geometry">
            <mxPoint x="250" y="870" as="sourcePoint" />
            <mxPoint x="300" y="820" as="targetPoint" />
            <Array as="points">
              <mxPoint x="559" y="890" />
              <mxPoint x="559" y="936" />
            </Array>
            <mxPoint as="offset" />
          </mxGeometry>
        </mxCell>
        <mxCell id="hLr_6GewXtSCxbk2koOT-107" value="&lt;pre&gt;100.64.0.8/31&lt;/pre&gt;" style="endArrow=classic;startArrow=classic;html=1;rounded=0;labelBackgroundColor=none;labelBorderColor=none;fontSize=16;edgeStyle=orthogonalEdgeStyle;fontStyle=1" edge="1" parent="1" source="hLr_6GewXtSCxbk2koOT-36" target="hLr_6GewXtSCxbk2koOT-101">
          <mxGeometry x="-0.4442" y="10" width="50" height="50" relative="1" as="geometry">
            <mxPoint x="680" y="890" as="sourcePoint" />
            <mxPoint x="730" y="840" as="targetPoint" />
            <Array as="points">
              <mxPoint x="559" y="870" />
              <mxPoint x="559" y="823" />
            </Array>
            <mxPoint as="offset" />
          </mxGeometry>
        </mxCell>
        <mxCell id="hLr_6GewXtSCxbk2koOT-108" value="&lt;h2 style=&quot;line-height: 80%;&quot;&gt;Prefixes&lt;/h2&gt;&lt;pre style=&quot;line-height: 80%; font-size: 18px;&quot;&gt;&lt;b style=&quot;&quot;&gt;&lt;font style=&quot;font-size: 18px;&quot;&gt;10.0.0.0/8&lt;/font&gt;&lt;/b&gt;&lt;/pre&gt;&lt;pre style=&quot;line-height: 80%; font-size: 18px;&quot;&gt;&lt;b style=&quot;&quot;&gt;&lt;font style=&quot;font-size: 18px;&quot;&gt;- 10.0.0.0/9&lt;/font&gt;&lt;/b&gt;&lt;/pre&gt;&lt;pre style=&quot;line-height: 80%; font-size: 18px;&quot;&gt;&lt;b style=&quot;&quot;&gt;&lt;font style=&quot;font-size: 18px;&quot;&gt;- 10.128.0.0/9&lt;/font&gt;&lt;/b&gt;&lt;/pre&gt;&lt;pre style=&quot;line-height: 80%; font-size: 18px;&quot;&gt;&lt;b&gt;192.168.0.0/16&lt;/b&gt;&lt;/pre&gt;" style="text;html=1;strokeColor=none;fillColor=none;spacing=5;spacingTop=-20;whiteSpace=wrap;overflow=hidden;rounded=0;fontSize=16;strokeWidth=1;" vertex="1" parent="1">
          <mxGeometry x="20" y="230.5" width="220" height="180" as="geometry" />
        </mxCell>
        <mxCell id="hLr_6GewXtSCxbk2koOT-127" value="MPLS VRF&lt;br&gt;CustA" style="ellipse;shape=cloud;whiteSpace=wrap;html=1;rounded=0;shadow=0;glass=0;sketch=0;strokeColor=default;strokeWidth=3;fontSize=16;fillColor=#FFFFFF;" vertex="1" parent="1">
          <mxGeometry x="340" y="359.5" width="182" height="132" as="geometry" />
        </mxCell>
        <mxCell id="hLr_6GewXtSCxbk2koOT-113" value="MGMT Network&lt;br style=&quot;font-size: 16px;&quot;&gt;192.168.0.0/16" style="sketch=0;outlineConnect=0;fontColor=#232F3E;gradientColor=none;fillColor=#232F3D;strokeColor=none;dashed=0;verticalLabelPosition=bottom;verticalAlign=top;align=center;html=1;fontSize=16;fontStyle=1;aspect=fixed;pointerEvents=1;shape=stencil(rZnhbqMwDMefhq8RsUMIH0+7u/eoWnZD18FEu1t5+wulgSROOxJaTZpiip2f83eIS4Yvp7fdR51Bvjt91Ptzhj8zgNfmUh/0f21+mywCWS7EZGp37/Vk3R+buj1P1tO57/7WX83hfLulad/qvrld/ZrdlFU5mvBXlv/QF8Y/fNl3baujN117utp+e9dfu77+03ef7cG5MF9ujsd9d+x6PZz+X6NlgK/XzzQH3625ux+5lymCAw5qGl6mIZ9GgzO653icVmrc8kFYFJvi3s9Wfv08dv6xGxeYXDCX37t/9TJvwRkv0Jn8Q/fGy7FpLS/ApCjinew/+2ku/JZExpVJKzh+LugMB+4OYblf3ky4zOzhYoSBcgcGFMtlmUKUuzQ2INLU3W6CihVQuGiYs5Jzl822xcAF1ny9K59QaABzp8FcNpGF07YZUAcKAvAYm38P1I4ZqQfCaTNBgB0DyeVUl66uB4wpl2N3qr/9FqlvkoJkNdvO5hxwVuTq+xzoqALAW2tFRW3btm1B6z35nMBAVS4meFVL4KiQbeCNQobsKRoGj8nCfLAbLd8a3GQMbjI2bkGrvAQUuagPAirFQBm42RhoNqIfHimViYop4S4sapiUZLIKRJojkk/GhZvN0ZW3xVmmeSdfApp8alfo5XOcKMbz2fFuC1OwUqkUQBsHCDPShBqxSFaUvmJKBv7utZiiCKkWVnsihBWTID3EnIH0IS3bTGkRQQAcY9PvCdUOGSkJolQbCQLoGEgtp9IEKmCMLaKE6i9Cmk6RDnVUpO0iOlH+4jzP02q4xDMOOc8Cw6QHLTlFrPe0uZuxQ8261Cqc2YwwC5anHJFyB0wXEFZVCljuQq1ravQiqcKDs3+zGJDaNp4o1rt6ZlPjQEEAHmPz/21Ts14Qz+xqHGlCQMIYXUHPaXDSlb2lwdFRy4KuOxU4TxM43ZrWe9rc4DggEADeKGrvHJys56QOBwWThdefaxsVskh7qISeT6tdPbPjcaAgAB/9gEmqWH1yMxox6ZCsLBM6g5ArxWQlkzJrObNOlJWRy3yirPQKSC+zlT5SevWhbcJrgCxTVHUoVkqvRNZ6IhWiGJoT92VpZCrpbXG2zaIU/rnZBsfYJfAw7ZCxwiCcNhME2DGQWz5HRfR/gC1YpTK/TKqELsjRT6SnQLO36BMCOsZAoXBKBAFwjF6Ch5sBvmj7nXcTd9+IXG8i75au1um12NXwHw==);shadow=0;strokeWidth=3;points=[[0.99,0.04,0,0,0],[1,0.5,0,0,0],[1,0.96,0,0,0]];" vertex="1" parent="1">
          <mxGeometry x="121" y="562.5" width="78" height="76" as="geometry" />
        </mxCell>
        <mxCell id="hLr_6GewXtSCxbk2koOT-120" value="" style="endArrow=classic;startArrow=classic;html=1;rounded=0;labelBackgroundColor=none;labelBorderColor=none;fontSize=16;exitX=0.99;exitY=0.04;exitDx=0;exitDy=0;exitPerimeter=0;entryX=0.15;entryY=0.82;entryDx=0;entryDy=0;entryPerimeter=0;" edge="1" parent="1" source="hLr_6GewXtSCxbk2koOT-113" target="hLr_6GewXtSCxbk2koOT-7">
          <mxGeometry width="50" height="50" relative="1" as="geometry">
            <mxPoint x="-240" y="420" as="sourcePoint" />
            <mxPoint x="-190" y="370" as="targetPoint" />
          </mxGeometry>
        </mxCell>
        <mxCell id="hLr_6GewXtSCxbk2koOT-121" value="" style="endArrow=classic;startArrow=classic;html=1;rounded=0;labelBackgroundColor=none;labelBorderColor=none;fontSize=16;entryX=1;entryY=0.5;entryDx=0;entryDy=0;entryPerimeter=0;" edge="1" parent="1" source="hLr_6GewXtSCxbk2koOT-26" target="hLr_6GewXtSCxbk2koOT-113">
          <mxGeometry width="50" height="50" relative="1" as="geometry">
            <mxPoint x="-250" y="530" as="sourcePoint" />
            <mxPoint x="-200" y="480" as="targetPoint" />
          </mxGeometry>
        </mxCell>
        <mxCell id="hLr_6GewXtSCxbk2koOT-126" value="" style="endArrow=classic;startArrow=classic;html=1;rounded=0;labelBackgroundColor=none;labelBorderColor=none;fontSize=16;entryX=1;entryY=0.96;entryDx=0;entryDy=0;entryPerimeter=0;exitX=0.19;exitY=0.1;exitDx=0;exitDy=0;exitPerimeter=0;" edge="1" parent="1" source="hLr_6GewXtSCxbk2koOT-36" target="hLr_6GewXtSCxbk2koOT-113">
          <mxGeometry width="50" height="50" relative="1" as="geometry">
            <mxPoint x="230" y="720" as="sourcePoint" />
            <mxPoint x="-160" y="710" as="targetPoint" />
          </mxGeometry>
        </mxCell>
        <mxCell id="hLr_6GewXtSCxbk2koOT-106" value="&lt;pre&gt;100.64.0.4/31&lt;/pre&gt;" style="endArrow=classic;startArrow=classic;html=1;rounded=0;labelBackgroundColor=none;labelBorderColor=none;fontSize=16;edgeStyle=orthogonalEdgeStyle;fontStyle=1" edge="1" parent="1" source="hLr_6GewXtSCxbk2koOT-26" target="hLr_6GewXtSCxbk2koOT-92">
          <mxGeometry x="-0.4455" y="10" width="50" height="50" relative="1" as="geometry">
            <mxPoint x="670" y="580" as="sourcePoint" />
            <mxPoint x="720" y="530" as="targetPoint" />
            <Array as="points">
              <mxPoint x="559" y="590" />
              <mxPoint x="559" y="542" />
            </Array>
            <mxPoint as="offset" />
          </mxGeometry>
        </mxCell>
        <mxCell id="hLr_6GewXtSCxbk2koOT-104" value="&lt;pre&gt;100.64.0.6/31&lt;/pre&gt;" style="endArrow=classic;startArrow=classic;html=1;rounded=0;labelBackgroundColor=none;labelBorderColor=none;fontSize=16;fontStyle=1;edgeStyle=orthogonalEdgeStyle;" edge="1" parent="1" source="hLr_6GewXtSCxbk2koOT-26" target="hLr_6GewXtSCxbk2koOT-88">
          <mxGeometry x="-0.4416" y="-10" width="50" height="50" relative="1" as="geometry">
            <mxPoint x="140" y="870" as="sourcePoint" />
            <mxPoint x="190" y="820" as="targetPoint" />
            <Array as="points">
              <mxPoint x="559" y="610" />
              <mxPoint x="559" y="655" />
            </Array>
            <mxPoint as="offset" />
          </mxGeometry>
        </mxCell>
        <mxCell id="hLr_6GewXtSCxbk2koOT-128" value="" style="endArrow=classic;startArrow=classic;html=1;rounded=0;labelBackgroundColor=none;labelBorderColor=none;fontSize=16;exitX=0.85;exitY=0.82;exitDx=0;exitDy=0;exitPerimeter=0;entryX=0.25;entryY=0.25;entryDx=0;entryDy=0;entryPerimeter=0;" edge="1" parent="1" source="hLr_6GewXtSCxbk2koOT-7" target="hLr_6GewXtSCxbk2koOT-127">
          <mxGeometry width="50" height="50" relative="1" as="geometry">
            <mxPoint x="360" y="410" as="sourcePoint" />
            <mxPoint x="380" y="390" as="targetPoint" />
          </mxGeometry>
        </mxCell>
        <mxCell id="hLr_6GewXtSCxbk2koOT-129" value="MPLS VRF&lt;br&gt;CustC" style="ellipse;shape=cloud;whiteSpace=wrap;html=1;rounded=0;shadow=0;glass=0;sketch=0;strokeColor=default;strokeWidth=3;fontSize=16;fillColor=#FFFFFF;" vertex="1" parent="1">
          <mxGeometry x="334" y="919.5" width="182" height="132" as="geometry" />
        </mxCell>
        <mxCell id="hLr_6GewXtSCxbk2koOT-130" value="MPLS VRF&lt;br&gt;CustB" style="ellipse;shape=cloud;whiteSpace=wrap;html=1;rounded=0;shadow=0;glass=0;sketch=0;strokeColor=default;strokeWidth=3;fontSize=16;fillColor=#FFFFFF;" vertex="1" parent="1">
          <mxGeometry x="340" y="638.5" width="182" height="132" as="geometry" />
        </mxCell>
        <mxCell id="hLr_6GewXtSCxbk2koOT-131" value="" style="endArrow=classic;startArrow=classic;html=1;rounded=0;labelBackgroundColor=none;labelBorderColor=none;fontSize=16;entryX=0.25;entryY=0.25;entryDx=0;entryDy=0;entryPerimeter=0;exitX=0.85;exitY=0.85;exitDx=0;exitDy=0;exitPerimeter=0;" edge="1" parent="1" source="hLr_6GewXtSCxbk2koOT-26" target="hLr_6GewXtSCxbk2koOT-130">
          <mxGeometry width="50" height="50" relative="1" as="geometry">
            <mxPoint x="310" y="710" as="sourcePoint" />
            <mxPoint x="360" y="660" as="targetPoint" />
          </mxGeometry>
        </mxCell>
        <mxCell id="hLr_6GewXtSCxbk2koOT-132" value="" style="endArrow=classic;startArrow=classic;html=1;rounded=0;labelBackgroundColor=none;labelBorderColor=none;fontSize=16;entryX=0.86;entryY=0.85;entryDx=0;entryDy=0;entryPerimeter=0;exitX=0.25;exitY=0.25;exitDx=0;exitDy=0;exitPerimeter=0;" edge="1" parent="1" source="hLr_6GewXtSCxbk2koOT-129" target="hLr_6GewXtSCxbk2koOT-36">
          <mxGeometry width="50" height="50" relative="1" as="geometry">
            <mxPoint x="170" y="950" as="sourcePoint" />
            <mxPoint x="220" y="900" as="targetPoint" />
          </mxGeometry>
        </mxCell>
      </root>
    </mxGraphModel>
  </diagram>
</mxfile>
